<?xml version="1.0" encoding="iso-8859-1"?>
<svg fill="#fff" version="1.1" id="Capa_1" xmlns="http://www.w3.org/2000/svg" xmlns:xlink="http://www.w3.org/1999/xlink" 
	 width="800px" height="800px" viewBox="0 0 930.3 930.301"
	 xml:space="preserve">
<g>
	<g>
		<path d="M701.709,518.301L694.31,523c-2.5,1.6-4.601,3.699-6.101,6.1l-31,48.701c-9.6,15.1-26.1,24.6-44,25.398l-57.7,2.5
			c-2.899,0.102-5.8,0.9-8.3,2.201l-8.1,4.199l-57.5,127.5l79.3,175.801c8,17.699,32.2,19.9,43.3,4l60.3-86.6
			c6.801-9.301,15.601-14.201,21.4-10.701l115.2,4c18.5,0.6,31.3-18.4,23.7-35.299L701.709,518.301z"/>
		<path d="M470.61,640.801c-8.8,0-17.601-2.102-25.4-6.201l-14.399-7.5l-36.9-19.1c-2.6-1.301-5.5-2.1-8.3-2.199l-57.7-2.5
			c-17.9-0.801-34.4-10.301-44-25.4l-31-48.701c-1.6-2.5-3.7-4.6-6.1-6.1l-15.9-10.1l-125.4,278c-7.5,16.6,4.7,35.301,22.7,35.301
			c0.3,0,0.6,0,0.9,0l115.2-4c0.3,0,0.6,0,0.9,0c8.2,0,15.8,4,20.5,10.699l60.3,86.6c5,7.201,12.801,10.701,20.5,10.701
			c9.301,0,18.5-5.102,22.801-14.701L465.009,703.4l31-68.6l-0.1,0.1C488.11,638.699,479.31,640.801,470.61,640.801z"/>
		<path d="M746.509,242.6c-3.399-6.5-5.3-13.6-5.6-20.9l-2.5-57.6c-0.4-8.2-4.7-15.6-11.6-20l-48.7-31c-6.2-3.9-11.4-9.2-15.3-15.3
			l-31-48.7c-4.4-6.9-11.801-11.2-20-11.6l-57.7-2.5c-7.3-0.3-14.4-2.2-20.9-5.6l-51.3-26.6c-3.6-1.9-7.6-2.8-11.5-2.8
			s-7.9,0.9-11.5,2.8l-51.3,26.6c-6.5,3.4-13.601,5.3-20.9,5.6l-57.7,2.5c-8.199,0.4-15.6,4.7-20,11.6l-31,48.7
			c-3.899,6.2-9.2,11.4-15.3,15.3l-48.7,31c-6.9,4.4-11.2,11.8-11.6,20l-2.5,57.7c-0.3,7.3-2.2,14.4-5.6,20.9l-26.6,51.3
			c-3.8,7.2-3.8,15.8,0,23l26.6,51.3c3.4,6.5,5.3,13.6,5.6,20.899l2.5,57.7c0.4,8.2,4.7,15.601,11.6,20l3.6,2.299l12.8,8.102
			l12.8,8.1l19.5,12.4c6.2,3.898,11.4,9.199,15.3,15.299l31,48.701c4.4,6.898,11.801,11.199,20,11.6l57.7,2.5
			c7.3,0.299,14.4,2.199,20.9,5.6l3.1,1.6l48.101,25c3.6,1.9,7.6,2.801,11.5,2.801c3.899,0,7.899-0.9,11.5-2.801l33.899-17.6l17.4-9
			c1.3-0.699,2.6-1.301,4-1.801c5.399-2.199,11.1-3.5,16.899-3.799l1.301-0.1l56.399-2.5c8.2-0.4,15.601-4.701,20-11.602l31-48.699
			c3.9-6.199,9.2-11.4,15.3-15.301l11-7l37.601-23.898c6.899-4.401,11.2-11.8,11.6-20l2.5-57.7c0.3-7.3,2.2-14.4,5.601-20.9
			l26.6-51.3c3.8-7.2,3.8-15.8,0-23L746.509,242.6z"/>
	</g>
</g>
</svg>