<?xml version="1.0" encoding="utf-8"?>

<!DOCTYPE svg PUBLIC "-//W3C//DTD SVG 1.1//EN" "http://www.w3.org/Graphics/SVG/1.1/DTD/svg11.dtd">
<!-- Uploaded to: SVG Repo, www.svgrepo.com, Generator: SVG Repo Mixer Tools -->
<svg version="1.1" id="_x32_" xmlns="http://www.w3.org/2000/svg" xmlns:xlink="http://www.w3.org/1999/xlink" 
	 width="800px" height="800px" viewBox="0 0 512 512"  xml:space="preserve">
<style type="text/css">
<![CDATA[
	.st0{fill:#fff;}
]]>
</style>
<g>
	<path class="st0" d="M164.803,151.167c-14.438,14.422-21.438,45.563-6.563,79.984c15.813,36.563,6.984,53.313-5.75,67.453
		c-12.172,13.484-115.906,103.109-136.438,123.64c-20.531,20.547-20.531,53.828,0,74.359s53.813,20.531,74.344,0
		s109.359-121.578,123.641-136.437c13.188-13.719,30.906-21.563,67.453-5.75c34.438,14.875,65.563,7.859,79.984-6.578l19.688-19.656
		L184.459,131.495L164.803,151.167z M67.037,473.229c-7.625,7.625-20,7.625-27.625,0s-7.625-19.984,0-27.609s20-7.625,27.625,0
		S74.662,465.604,67.037,473.229z"/>
	<path class="st0" d="M501.068,159.635l-90.438-90.453c-3.422-3.422-8.766-4.063-12.891-1.531l-46.75,28.438l27.797-47.656
		c2.406-4.125,1.734-9.359-1.641-12.734L351.709,10.26c-7.141-7.141-17-10.844-27.063-10.188
		c-10.078,0.656-19.375,5.625-25.516,13.625l-88.438,115.188l171.766,171.766l115.188-88.438
		c7.984-6.141,12.953-15.453,13.625-25.516C511.928,176.62,508.209,166.76,501.068,159.635z"/>
</g>
</svg>